<svg width="17" height="21" viewBox="0 0 17 21" fill="none" xmlns="http://www.w3.org/2000/svg">
<path d="M4.46645 19.9771C4.07805 19.7187 3.73381 19.3994 3.44698 19.0315C3.13146 18.6518 2.83913 18.2534 2.57157 17.8385C1.94368 16.9186 1.45128 15.9133 1.10947 14.8533C0.698846 13.6221 0.5 12.4419 0.5 11.2876C0.5 9.99852 0.778877 8.87317 1.32432 7.92757C1.72864 7.18848 2.32311 6.57085 3.04621 6.13858C3.74698 5.70331 4.55217 5.46512 5.37695 5.44908C5.66568 5.44908 5.97657 5.49094 6.30654 5.57097C6.54355 5.63808 6.83228 5.74396 7.18503 5.87571C7.63382 6.04869 7.88068 6.15458 7.96441 6.18044C8.22728 6.27647 8.44829 6.31834 8.62189 6.31834C8.75364 6.31834 8.93955 6.27647 9.15071 6.21245C9.26953 6.17059 9.49361 6.09671 9.81435 5.95943C10.132 5.84369 10.382 5.74458 10.5808 5.6707C10.8855 5.58082 11.1804 5.49771 11.4433 5.45585C11.7549 5.40672 12.0712 5.39371 12.3858 5.41707C12.931 5.4527 13.468 5.56824 13.9796 5.75997C14.8163 6.09671 15.4928 6.62245 15.9964 7.36982C15.7836 7.501 15.5838 7.65232 15.3999 7.82168C14.9995 8.17664 14.6584 8.59334 14.3896 9.05601C14.0383 9.68828 13.8562 10.4006 13.8608 11.1239C13.8738 12.0122 14.1015 12.7947 14.5503 13.4712C14.8803 13.9727 15.3091 14.4015 15.8105 14.7314C16.0672 14.9044 16.2882 15.0232 16.5 15.1033C16.4009 15.4111 16.295 15.709 16.17 16.0045C15.8866 16.6672 15.5431 17.3025 15.1438 17.9025C14.788 18.419 14.5091 18.8038 14.2973 19.0599C13.9673 19.4508 13.6497 19.7493 13.3289 19.9574C12.9762 20.1914 12.5594 20.3163 12.1359 20.3163C11.849 20.3274 11.5622 20.2926 11.2863 20.2135C11.0493 20.1335 10.8147 20.0467 10.5839 19.9476C10.3439 19.8373 10.0964 19.7441 9.84329 19.6687C9.21763 19.508 8.56164 19.5069 7.93547 19.6656C7.67876 19.7395 7.4319 19.8257 7.18811 19.9316C6.84521 20.0756 6.61743 20.1723 6.48569 20.2135C6.22282 20.2905 5.9501 20.3385 5.6743 20.3545C5.24767 20.3545 4.84998 20.2326 4.45598 19.9857L4.46645 19.9771ZM10.0932 4.82361C9.53547 5.10248 9.00296 5.2213 8.47414 5.18252C8.39103 4.65 8.47414 4.10518 8.69515 3.50864C8.88331 3.00326 9.16132 2.53607 9.51577 2.12965C9.89008 1.70181 10.3443 1.35112 10.8529 1.09725C11.3947 0.818375 11.9112 0.667548 12.4049 0.645386C12.4689 1.20314 12.4049 1.75166 12.1999 2.3445C12.0102 2.86857 11.7327 3.35654 11.3793 3.78752C11.0185 4.21595 10.5759 4.56799 10.0772 4.82299L10.0932 4.82361Z" fill="white"/>
</svg>
