<svg width="26" height="20" viewBox="0 0 26 20" fill="none" xmlns="http://www.w3.org/2000/svg">
<path fill-rule="evenodd" clip-rule="evenodd" d="M14.0773 6.06202C14.0773 5.423 14.7799 4.63979 16.0092 4.63979C17.2385 4.63979 17.9411 5.423 17.9411 6.06202C17.9411 6.70103 17.2385 7.48424 16.0092 7.48424C14.7799 7.48424 14.0773 6.70103 14.0773 6.06202ZM12.5715 6.77386L4.31659 6.77378C3.87477 6.77377 3.5166 6.4156 3.5166 5.97377C3.51661 5.53194 3.87478 5.17377 4.31661 5.17378L12.6263 5.17386C13.0846 3.86352 14.5316 3.03979 16.0092 3.03979C17.4865 3.03979 18.9333 3.86325 19.3918 5.17321L22.2379 5.173C22.6797 5.17297 23.0379 5.53111 23.0379 5.97294C23.038 6.41477 22.6798 6.77297 22.238 6.773L19.4471 6.77321C19.0619 8.18592 17.5522 9.08424 16.0092 9.08424C14.4664 9.08424 12.9569 8.18619 12.5715 6.77386Z" fill="#252B5C"/>
<path fill-rule="evenodd" clip-rule="evenodd" d="M12.4774 13.8843C12.4774 13.2453 11.7748 12.4621 10.5455 12.4621C9.31627 12.4621 8.61362 13.2453 8.61362 13.8843C8.61362 14.5233 9.31627 15.3065 10.5455 15.3065C11.7748 15.3065 12.4774 14.5233 12.4774 13.8843ZM13.9832 14.5961L22.2381 14.596C22.6799 14.596 23.0381 14.2379 23.0381 13.796C23.0381 13.3542 22.6799 12.996 22.2381 12.996L13.9284 12.9961C13.4701 11.6858 12.0231 10.8621 10.5455 10.8621C9.0682 10.8621 7.6214 11.6855 7.16288 12.9955L4.31683 12.9953C3.875 12.9952 3.5168 13.3534 3.51677 13.7952C3.51674 14.237 3.87488 14.5952 4.31671 14.5953L7.10765 14.5955C7.49278 16.0082 9.00251 16.9065 10.5455 16.9065C12.0883 16.9065 13.5978 16.0085 13.9832 14.5961Z" fill="#252B5C"/>
</svg>
