<svg width="30" height="30" viewBox="0 0 30 30" fill="none" xmlns="http://www.w3.org/2000/svg">
<g clip-path="url(#clip0_1_67)">
<g clip-path="url(#clip1_1_67)">
<path d="M20.2344 6.18727H17.2968V1.27907C17.2968 0.575275 16.7215 0 16.0177 0H5.36901C4.66522 0 4.08994 0.575275 4.08994 1.27907V6.19339H1.287C0.58321 6.19339 0.00793457 6.76867 0.00793457 7.47246V28.7209C0.00793457 29.4247 0.58321 30 1.287 30H20.1732C20.877 30 21.4522 29.4247 21.5134 28.7209V7.46634C21.5073 6.76255 20.9382 6.18727 20.2344 6.18727ZM6.64196 2.49082H14.806V13.1457H6.64196V2.49082ZM18.9553 27.4969H2.55995V8.73929H4.08994V13.2252C3.60647 13.4088 3.25763 13.8739 3.25763 14.4186C3.25763 15.1224 3.8329 15.6977 4.5367 15.6977H16.85C17.5538 15.6977 18.1291 15.1224 18.1291 14.4186C18.1291 13.8739 17.7803 13.4088 17.2968 13.2252V8.73929H18.9553V27.4969Z" fill="#FF4400"/>
<path d="M6.64018 17.608H6.45046C5.74666 17.608 5.17139 18.1833 5.17139 18.8871C5.17139 19.5909 5.74666 20.1662 6.45046 20.1662H6.64018C7.34397 20.1662 7.91925 19.5909 7.91925 18.8871C7.91925 18.1833 7.34397 17.608 6.64018 17.608Z" fill="#FF4400"/>
<path d="M15.0005 17.608H14.8107C14.107 17.608 13.5317 18.1833 13.5317 18.8871C13.5317 19.5909 14.107 20.1662 14.8107 20.1662H15.0005C15.7043 20.1662 16.2795 19.5909 16.2795 18.8871C16.2795 18.1833 15.7043 17.608 15.0005 17.608Z" fill="#FF4400"/>
<path d="M6.64018 22.0144H6.45046C5.74666 22.0144 5.17139 22.5897 5.17139 23.2935C5.17139 23.9973 5.74666 24.5725 6.45046 24.5725H6.64018C7.34397 24.5725 7.91925 23.9973 7.91925 23.2935C7.91925 22.5897 7.34397 22.0144 6.64018 22.0144Z" fill="#FF4400"/>
<path d="M15.0005 22.0144H14.8107C14.107 22.0144 13.5317 22.5897 13.5317 23.2935C13.5317 23.9973 14.107 24.5725 14.8107 24.5725H15.0005C15.7043 24.5725 16.2795 23.9973 16.2795 23.2935C16.2795 22.5897 15.7043 22.0144 15.0005 22.0144Z" fill="#FF4400"/>
<path d="M28.7162 6.18773H24.2487C23.5449 6.18773 22.9696 6.76301 22.9696 7.4668V28.7153C22.9696 29.4191 23.5449 29.9943 24.2487 29.9943H28.7162C29.42 29.9943 29.9953 29.4191 29.9953 28.7153V7.4668C29.9953 6.76301 29.42 6.18773 28.7162 6.18773ZM27.5045 27.4974H25.5277V8.73975H27.5045V27.4974Z" fill="#FF4400"/>
</g>
</g>
<defs>
<clipPath id="clip0_1_67">
<rect width="30" height="30" fill="white"/>
</clipPath>
<clipPath id="clip1_1_67">
<rect width="30" height="30" fill="white"/>
</clipPath>
</defs>
</svg>
