<svg width="30" height="30" viewBox="0 0 30 30" fill="none" xmlns="http://www.w3.org/2000/svg">
<path d="M30 12.713C30 11.8957 29.3374 11.2332 28.5202 11.2332H20.0448C19.2276 11.2332 18.565 11.8957 18.565 12.713V17.1525C18.565 17.9697 19.2276 18.6323 20.0448 18.6323H28.5202C29.3374 18.6323 30 17.9697 30 17.1525V12.713ZM22.8047 16.6772C21.852 16.6772 21.0796 15.9048 21.0796 14.9521C21.0796 13.9994 21.852 13.227 22.8047 13.227C23.7574 13.227 24.5298 13.9994 24.5298 14.9521C24.5298 15.9047 23.7574 16.6772 22.8047 16.6772Z" fill="#FF4400"/>
<path d="M16.6156 9.21525H27.5785V4.77579C27.5785 3.6631 26.7182 2.75785 25.6053 2.75785H2.06274C0.950045 2.75785 0 3.6631 0 4.77579V25.2242C0 26.3369 0.950045 27.2422 2.06274 27.2422H25.6053C26.718 27.2422 27.5785 26.3369 27.5785 25.2242V20.6502H16.6356L16.6156 9.21525Z" fill="#FF4400"/>
</svg>
